<svg xmlns="http://www.w3.org/2000/svg" direction="ltr" width="933" height="508.0000000000002" viewBox="1029.6872151364232 1545.1825387433162 933 508.0000000000002" stroke-linecap="round" stroke-linejoin="round" data-color-mode="light" class="tl-container tl-theme__force-sRGB tl-theme__light" style="background-color: transparent;"><defs/><g transform="matrix(1, 0, 0, 1, 1029.6872, 1545.1825)" opacity="1"><g transform="scale(1, 1)"><g>
<g xmlns="http://www.w3.org/2000/svg" stroke-width="2.00" fill="none" stroke-linecap="butt">
<path stroke="#ececef" vector-effect="non-scaling-stroke" d="   M 22.23 186.60   Q 28.67 187.73 35.01 188.65   C 55.25 191.56 63.89 165.51 49.46 153.26   C 41.89 146.84 31.30 150.03 22.26 151.54"/>
<path stroke="#a4a7aa" vector-effect="non-scaling-stroke" d="   M 22.26 151.54   L 22.13 141.03"/>
<path stroke="#ececef" vector-effect="non-scaling-stroke" d="   M 22.13 141.03   L 71.48 141.22   A 0.83 0.82 -89.7 0 0 72.31 140.39   L 72.29 24.80"/>
<path stroke="#a4a7aa" vector-effect="non-scaling-stroke" d="   M 72.29 24.80   L 164.18 24.61   A 1.23 1.22 88.5 0 1 165.41 25.79   L 165.50 28.13"/>
<path stroke="#ececef" vector-effect="non-scaling-stroke" d="   M 165.50 28.13   Q 158.57 28.42 151.73 28.39   Q 145.12 28.36 142.55 29.35   Q 138.06 31.08 135.35 34.99   Q 126.10 48.32 133.50 62.63   Q 138.70 72.71 150.25 72.55   Q 157.85 72.44 165.65 71.91"/>
<path stroke="#a4a7aa" vector-effect="non-scaling-stroke" d="   M 165.65 71.91   L 165.58 73.76"/>
<path stroke="#ececef" vector-effect="non-scaling-stroke" d="   M 165.58 73.76   Q 156.02 73.53 146.75 73.81   C 139.80 74.02 134.14 80.29 131.87 86.51   Q 127.40 98.73 134.70 110.05   Q 137.21 113.94 142.08 116.23   Q 144.98 117.60 151.61 117.77   Q 157.62 117.93 162.50 118.02   Q 163.97 118.05 165.59 116.55"/>
<path stroke="#a4a7aa" vector-effect="non-scaling-stroke" d="   M 165.59 116.55   L 165.66 119.55"/>
<path stroke="#ececef" vector-effect="non-scaling-stroke" d="   M 165.66 119.55   Q 165.61 120.35 164.31 120.01   A 9.48 2.77 25.1 0 0 161.08 119.51   L 137.42 119.61   A 1.05 1.05 0.0 0 0 136.37 120.66   L 136.61 198.25"/>
<path stroke="#a4a7aa" vector-effect="non-scaling-stroke" d="   M 136.61 198.25   L 132.30 198.30   A 0.92 0.91 89.7 0 0 131.40 199.22   L 131.40 201.67   A 1.02 1.01 90.0 0 0 132.41 202.69   L 169.65 202.69   A 0.33 0.33 0.0 0 0 169.98 202.36   L 169.98 25.54   A 0.62 0.61 -0.0 0 1 170.60 24.93   L 350.14 24.93   A 0.74 0.73 -0.0 0 1 350.88 25.66   L 350.88 295.75   A 1.05 1.05 0.0 0 1 349.83 296.80   L 325.27 296.80   A 0.92 0.91 0.0 0 0 324.35 297.71   L 324.35 300.45   A 1.07 1.07 0.0 0 0 325.42 301.52   L 398.18 301.40   A 1.41 1.40 -68.7 0 0 399.22 300.94   Q 399.73 300.37 399.48 299.17"/>
<path stroke="#d9dde1" vector-effect="non-scaling-stroke" d="   M 399.48 299.17   L 401.36 296.85   A 2.69 2.64 -20.9 0 0 401.92 295.63   Q 403.17 288.30 403.19 283.25   Q 403.25 268.00 403.17 250.57   A 0.73 0.73 0.0 0 0 402.41 249.84   L 398.07 250.00"/>
<path stroke="#ececef" vector-effect="non-scaling-stroke" d="   M 398.07 250.00   Q 398.02 219.78 398.01 190.25   C 398.01 186.11 397.26 181.82 397.33 178.07   Q 398.35 128.10 398.00 69.44   A 1.52 1.51 89.8 0 1 399.51 67.91   L 502.48 67.91   A 0.88 0.88 0.0 0 0 503.36 67.03   L 503.32 24.69"/>
<path stroke="#a4a7aa" vector-effect="non-scaling-stroke" d="   M 503.32 24.69   L 772.98 24.79   A 0.54 0.53 90.0 0 1 773.51 25.33   L 773.51 57.59   A 0.82 0.82 0.0 0 0 774.33 58.41   L 782.06 58.41   A 0.80 0.79 -0.0 0 0 782.86 57.62   L 782.86 26.14   A 0.54 0.53 -90.0 0 1 783.39 25.60   L 911.01 25.60   A 0.23 0.23 0.0 0 1 911.24 25.83   L 911.24 480.82   A 0.55 0.55 0.0 0 1 910.69 481.37   L 783.23 481.37   A 0.42 0.42 0.0 0 1 782.81 480.95   L 782.81 425.52   A 0.54 0.54 0.0 0 0 782.27 424.98   L 774.05 424.98   A 0.49 0.48 0.0 0 0 773.56 425.46   L 773.56 481.92   A 0.37 0.37 0.0 0 1 773.19 482.29   L 581.01 482.28"/>
<path stroke="#eddbc5" vector-effect="non-scaling-stroke" d="   M 581.01 482.28   L 581.20 458.00   A 0.89 0.88 0.3 0 0 580.31 457.11   L 517.75 457.11   A 0.93 0.93 0.0 0 0 516.82 458.05   L 517.10 482.29"/>
<path stroke="#a4a7aa" vector-effect="non-scaling-stroke" d="   M 517.10 482.29   L 439.08 482.22   A 0.68 0.68 0.0 0 1 438.40 481.54   L 438.40 378.58   A 0.45 0.44 90.0 0 1 438.84 378.13   L 479.62 378.13   A 0.79 0.79 0.0 0 0 480.41 377.34   L 480.41 374.43   A 0.82 0.81 0.0 0 0 479.59 373.62   L 475.93 373.62   A 0.50 0.50 0.0 0 1 475.43 373.12   L 475.43 357.47   A 0.64 0.64 0.0 0 0 474.79 356.83   L 471.80 356.83   A 0.79 0.78 90.0 0 0 471.02 357.62   L 471.02 373.32   A 0.30 0.29 0.0 0 1 470.72 373.61   L 372.03 373.61   A 0.45 0.44 90.0 0 0 371.59 374.06   L 371.59 377.63   A 0.56 0.56 0.0 0 0 372.14 378.19   L 387.92 378.27"/>
<path stroke="#ececef" vector-effect="non-scaling-stroke" d="   M 387.92 378.27   Q 387.71 403.10 388.50 427.80   C 388.77 436.25 388.41 443.16 388.01 451.50   Q 387.37 464.68 387.99 479.25   Q 388.04 480.54 389.47 482.24"/>
<path stroke="#a4a7aa" vector-effect="non-scaling-stroke" d="   M 389.47 482.24   L 363.14 482.26"/>
<path stroke="#ececef" vector-effect="non-scaling-stroke" d="   M 363.14 482.26   C 363.65 475.44 363.94 466.29 361.02 460.57   C 354.85 448.48 339.08 444.41 327.69 452.24   Q 320.83 456.96 319.04 463.44   Q 316.95 471.00 318.19 482.23"/>
<path stroke="#a4a7aa" vector-effect="non-scaling-stroke" d="   M 318.19 482.23   L 281.82 482.26"/>
<path stroke="#ececef" vector-effect="non-scaling-stroke" d="   M 281.82 482.26   Q 282.33 470.82 282.10 459.51   Q 281.98 453.56 280.68 450.79   C 277.61 444.24 269.56 441.20 263.10 443.90   Q 255.09 447.26 254.21 456.25   Q 253.38 464.78 254.70 482.21"/>
<path stroke="#a4a7aa" vector-effect="non-scaling-stroke" d="   M 254.70 482.21   L 235.66 482.21   A 0.78 0.78 0.0 0 1 234.88 481.43   L 234.87 408.42"/>
<path stroke="#ececef" vector-effect="non-scaling-stroke" d="   M 234.87 408.42   Q 236.81 410.50 238.49 410.57   Q 252.63 411.13 266.01 410.73   Q 268.12 410.67 269.45 409.94   A 0.92 0.91 75.6 0 0 269.92 409.14   L 269.70 378.16"/>
<path stroke="#a4a7aa" vector-effect="non-scaling-stroke" d="   M 269.70 378.16   L 319.75 378.12   A 0.88 0.87 0.0 0 0 320.63 377.25   L 320.63 374.19   A 0.58 0.57 0.0 0 0 320.05 373.62   L 226.08 373.62   A 0.47 0.47 0.0 0 0 225.61 374.09   L 225.61 428.55   A 1.05 1.04 -0.0 0 1 224.56 429.59   L 194.26 429.59   A 0.71 0.70 -90.0 0 0 193.56 430.30   L 193.56 437.87   A 0.77 0.76 90.0 0 0 194.32 438.64   L 224.67 438.64   A 0.89 0.88 -0.0 0 1 225.56 439.52   L 225.56 490.97   A 0.58 0.58 0.0 0 0 226.14 491.55   L 921.25 491.55   A 0.52 0.51 0.0 0 0 921.77 491.04   L 921.77 15.76   A 0.67 0.67 0.0 0 0 921.10 15.09   C 874.60 15.02 827.62 14.68 780.67 15.07   Q 764.62 15.20 747.50 15.20   Q 578.53 15.18 532.69 15.15   C 510.88 15.14 488.48 15.62 466.91 15.42   Q 444.51 15.21 417.58 15.23   Q 357.12 15.30 309.75 15.20   C 240.80 15.07 192.40 15.41 132.78 15.17   Q 106.75 15.06 68.83 15.18   C 50.37 15.24 32.56 15.84 13.65 15.56   A 0.69 0.68 0.4 0 0 12.95 16.24   L 12.95 438.27   A 0.52 0.52 0.0 0 0 13.47 438.79   L 139.09 438.79   A 0.56 0.56 0.0 0 0 139.65 438.23   L 139.65 430.10   A 0.63 0.62 0.0 0 0 139.02 429.48   L 115.67 429.48   A 0.50 0.50 0.0 0 1 115.17 428.98   L 115.17 395.16   A 0.33 0.33 0.0 0 0 114.84 394.83   L 110.91 394.83   A 0.39 0.39 0.0 0 0 110.52 395.22   L 110.52 428.83   A 0.67 0.67 0.0 0 1 109.85 429.50   L 22.86 429.50   A 0.48 0.47 -0.0 0 1 22.38 429.03   L 22.38 302.39   A 0.99 0.99 0.0 0 1 23.37 301.40   L 110.21 301.40   A 0.37 0.37 0.0 0 1 110.58 301.77   L 110.58 336.52   A 0.71 0.71 0.0 0 0 111.29 337.23   L 114.47 337.23   A 0.63 0.63 0.0 0 0 115.10 336.60   L 115.10 301.75   A 0.33 0.33 0.0 0 1 115.43 301.42   L 273.31 301.42   A 0.83 0.82 -90.0 0 0 274.13 300.59   L 274.13 297.61   A 0.80 0.80 0.0 0 0 273.33 296.81   L 115.60 296.81   A 0.48 0.48 0.0 0 1 115.12 296.33   L 115.12 260.39   A 0.49 0.49 0.0 0 0 114.63 259.90   L 111.05 259.90   A 0.48 0.47 -90.0 0 0 110.58 260.38   L 110.58 296.22   A 0.58 0.58 0.0 0 1 110.00 296.80   L 23.10 296.80   A 0.73 0.73 0.0 0 1 22.37 296.07   L 22.37 203.59   A 0.92 0.92 0.0 0 1 23.29 202.67   L 81.55 202.67   A 0.70 0.70 0.0 0 0 82.25 201.97   L 82.25 199.00   A 0.71 0.71 0.0 0 0 81.54 198.29   L 22.92 198.29   A 0.60 0.60 0.0 0 1 22.32 197.69   L 22.23 186.60"/>
<path stroke="#909499" vector-effect="non-scaling-stroke" d="   M 269.70 378.16   L 235.33 378.10   A 0.51 0.51 0.0 0 0 234.82 378.61   L 234.87 408.42"/>
<path stroke="#909499" vector-effect="non-scaling-stroke" d="   M 254.70 482.21   L 281.82 482.26"/>
<path stroke="#909499" vector-effect="non-scaling-stroke" d="   M 318.19 482.23   L 363.14 482.26"/>
<path stroke="#909499" vector-effect="non-scaling-stroke" d="   M 389.47 482.24   L 433.22 482.23   A 0.72 0.72 0.0 0 0 433.94 481.51   L 433.94 378.75   A 0.51 0.51 0.0 0 0 433.43 378.24   L 387.92 378.27"/>
<path stroke="#92836f" vector-effect="non-scaling-stroke" d="   M 517.10 482.29   L 581.01 482.28"/>
<path stroke="#909499" vector-effect="non-scaling-stroke" d="   M 503.32 24.69   L 355.88 24.89   A 0.58 0.58 0.0 0 0 355.30 25.47   L 355.29 249.83"/>
<path stroke="#7e858b" vector-effect="non-scaling-stroke" d="   M 355.29 249.83   L 355.11 295.81   A 1.14 1.13 89.5 0 0 356.26 296.95   C 371.85 296.70 384.65 296.62 397.82 297.33   A 1.40 1.36 -22.1 0 1 398.70 297.69   Q 399.41 298.31 399.48 299.17"/>
<path stroke="#909499" vector-effect="non-scaling-stroke" d="   M 136.61 198.25   L 164.92 198.29   A 0.79 0.79 0.0 0 0 165.71 197.50   L 165.66 119.55"/>
<path stroke="#909499" vector-effect="non-scaling-stroke" d="   M 165.59 116.55   L 165.58 73.76"/>
<path stroke="#909499" vector-effect="non-scaling-stroke" d="   M 165.65 71.91   L 165.50 28.13"/>
<path stroke="#909499" vector-effect="non-scaling-stroke" d="   M 72.29 24.80   L 22.79 24.65   A 0.70 0.70 0.0 0 0 22.09 25.35   L 22.13 141.03"/>
<path stroke="#909499" vector-effect="non-scaling-stroke" d="   M 22.26 151.54   L 22.23 186.60"/>
<path stroke="#c6cad0" vector-effect="non-scaling-stroke" d="   M 398.07 250.00   L 355.29 249.83"/>
<path stroke="#d9e8d5" vector-effect="non-scaling-stroke" d="   M 871.18 34.12   Q 867.02 34.32 865.89 34.86   C 862.25 36.59 860.67 39.94 860.02 43.81   A 4.82 4.60 65.9 0 1 859.47 45.36   C 855.64 52.00 853.78 58.01 858.00 65.15   Q 863.75 74.88 876.51 74.22   A 2.70 2.68 -26.5 0 1 878.35 74.83   Q 886.93 81.94 895.47 75.51   Q 897.09 74.29 898.51 71.49   Q 900.26 68.06 902.73 65.98   C 908.76 60.92 907.92 53.11 904.51 46.96   A 3.10 3.09 33.6 0 1 904.13 45.10   Q 904.69 39.97 901.15 36.97   C 899.77 35.79 897.06 35.14 895.62 34.52   A 3.99 3.94 81.9 0 1 894.16 33.41   C 892.19 31.02 889.64 28.38 886.23 27.83   C 881.77 27.11 876.51 28.32 873.77 31.95   Q 872.67 33.39 872.23 33.73   A 1.77 1.77 0.0 0 1 871.18 34.12"/>
<path stroke="#d9e8d5" vector-effect="non-scaling-stroke" d="   M 840.87 57.01   Q 844.88 53.70 846.06 49.61   C 848.75 40.24 839.54 31.75 830.62 34.64   Q 828.66 35.28 826.74 36.20   A 1.02 1.01 -42.9 0 1 825.80 36.17   Q 824.62 35.50 823.67 34.89   C 816.65 30.41 806.98 31.87 802.50 39.22   Q 798.63 45.58 802.04 51.94   A 1.30 1.29 -36.2 0 1 801.80 53.48   C 798.51 56.70 797.13 61.50 799.12 65.98   Q 800.31 68.69 804.16 70.78   Q 811.77 74.92 819.72 72.48   A 0.90 0.89 -22.0 0 1 820.77 72.92   Q 824.75 80.35 832.67 79.93   C 837.67 79.67 842.28 76.55 843.83 71.77   Q 846.08 64.82 840.75 58.05   A 0.75 0.75 0.0 0 1 840.87 57.01"/>
<path stroke="#d9dde1" vector-effect="non-scaling-stroke" d="   M 197.64 53.48   A 13.21 13.21 0.0 0 0 184.43 40.27   A 13.21 13.21 0.0 0 0 171.22 53.48   A 13.21 13.21 0.0 0 0 184.43 66.69   A 13.21 13.21 0.0 0 0 197.64 53.48"/>
<path stroke="#f3ede6" vector-effect="non-scaling-stroke" d="   M 172.66 166.73   A 2.27 2.25 87.0 0 0 174.99 168.84   C 183.98 168.52 192.08 169.07 202.37 169.11   Q 241.23 169.26 301.26 169.07   Q 303.02 169.06 304.37 168.56   A 1.08 1.08 0.0 0 0 305.04 167.84   Q 305.53 166.11 305.54 164.50   Q 305.54 162.69 305.64 71.48   Q 305.64 68.38 302.62 68.38   Q 202.21 68.34 197.50 68.40   Q 177.78 68.66 175.24 68.60   Q 172.19 68.53 172.02 71.72   C 171.53 80.44 172.24 92.72 171.99 101.43   Q 171.66 113.39 171.90 122.22   C 172.19 132.32 171.88 142.35 171.87 151.35   C 171.86 157.11 172.34 162.12 172.66 166.73"/>
<path stroke="#faf5d4" vector-effect="non-scaling-stroke" d="   M 522.04 190.17   L 524.43 192.21   A 1.95 1.86 71.5 0 0 525.17 192.60   C 530.14 193.92 536.41 193.97 541.50 193.97   Q 573.39 193.97 639.50 194.07   Q 644.23 194.07 650.79 192.90   A 2.35 2.33 18.6 0 0 651.93 192.34   L 654.23 190.29"/>
<path stroke="#f5ecc6" vector-effect="non-scaling-stroke" d="   M 654.23 190.29   L 665.15 189.77   A 2.20 2.20 0.0 0 0 667.24 187.68   C 667.80 177.29 667.58 163.93 667.34 144.00   C 667.30 140.53 665.31 140.87 662.22 140.70   Q 658.52 140.49 657.40 140.43   A 1.00 0.99 -4.1 0 1 656.47 139.63   L 655.93 136.95   A 2.03 2.03 0.0 0 0 653.94 135.32   L 522.92 135.32   A 2.24 2.23 -84.3 0 0 520.73 137.12   L 520.16 139.95   A 0.75 0.75 0.0 0 1 519.49 140.55   L 511.71 141.28   A 2.09 2.08 -85.5 0 0 509.87 142.86   Q 509.44 144.62 509.45 147.50   Q 509.54 168.17 509.42 187.27   A 2.32 2.30 2.0 0 0 511.60 189.59   L 522.04 190.17"/>
<path stroke="#f0e29b" vector-effect="non-scaling-stroke" d="   M 654.23 190.29   Q 652.63 187.17 652.72 180.96   Q 652.94 166.80 652.63 155.18   A 1.48 1.48 0.0 0 0 651.15 153.74   L 525.30 153.74   A 1.60 1.59 -89.6 0 0 523.71 155.32   Q 523.53 166.59 523.59 182.98   Q 523.61 188.25 522.04 190.17"/>
<path stroke="#faf5d4" vector-effect="non-scaling-stroke" d="   M 658.01 297.06   Q 659.16 282.90 658.34 269.01   Q 658.17 266.10 655.23 266.09   Q 589.59 265.79 524.00 266.06   C 521.10 266.08 518.98 265.64 518.77 268.98   Q 517.83 283.81 518.92 297.01"/>
<path stroke="#a4a7aa" vector-effect="non-scaling-stroke" d="   M 518.92 297.01   L 471.56 296.90   A 0.51 0.51 0.0 0 0 471.05 297.41   L 471.05 307.04   A 0.83 0.83 0.0 0 0 471.88 307.87   L 474.66 307.87   A 0.82 0.82 0.0 0 0 475.48 307.05   L 475.48 301.87   A 0.46 0.46 0.0 0 1 475.94 301.41   L 595.84 301.38"/>
<path stroke="#eddbc5" vector-effect="non-scaling-stroke" d="   M 595.84 301.38   L 595.59 328.34   A 0.72 0.72 0.0 0 0 596.31 329.07   L 629.48 329.09"/>
<path stroke="#d9dde1" vector-effect="non-scaling-stroke" d="   M 629.48 329.09   Q 621.18 333.18 619.50 341.90   Q 618.24 348.40 621.48 353.24   Q 627.98 362.96 639.22 360.83   C 644.87 359.76 649.72 355.14 651.39 349.93   C 654.14 341.36 649.69 332.55 641.50 329.07"/>
<path stroke="#eddbc5" vector-effect="non-scaling-stroke" d="   M 641.50 329.07   L 674.49 329.06   A 0.53 0.53 0.0 0 0 675.02 328.52   L 674.79 301.32"/>
<path stroke="#a4a7aa" vector-effect="non-scaling-stroke" d="   M 674.79 301.32   L 772.55 301.30   A 0.93 0.93 0.0 0 1 773.48 302.23   L 773.48 310.93   A 0.85 0.85 0.0 0 0 774.33 311.78   L 781.92 311.78   A 0.88 0.88 0.0 0 0 782.80 310.90   L 782.80 160.06   A 0.26 0.26 0.0 0 0 782.54 159.80   L 773.79 159.80   A 0.24 0.23 0.0 0 0 773.55 160.03   L 773.55 296.40   A 0.58 0.58 0.0 0 1 772.97 296.98   L 658.01 297.06"/>
<path stroke="#92836f" vector-effect="non-scaling-stroke" d="   M 674.79 301.32   L 595.84 301.38"/>
<path stroke="#9e9d7e" vector-effect="non-scaling-stroke" d="   M 518.92 297.01   L 658.01 297.06"/>
<path stroke="#c7b8a6" vector-effect="non-scaling-stroke" d="   M 641.50 329.07   L 629.48 329.09"/>
<path stroke="#d9dde1" vector-effect="non-scaling-stroke" d="   M 197.51 184.42   A 13.19 13.19 0.0 0 0 184.32 171.23   A 13.19 13.19 0.0 0 0 171.13 184.42   A 13.19 13.19 0.0 0 0 184.32 197.61   A 13.19 13.19 0.0 0 0 197.51 184.42"/>
<path stroke="#faf5d4" vector-effect="non-scaling-stroke" d="   M 685.97 203.95   Q 683.29 205.92 682.99 209.00   Q 681.41 224.89 683.27 240.75   Q 683.42 242.03 685.78 243.28"/>
<path stroke="#f5ecc6" vector-effect="non-scaling-stroke" d="   M 685.78 243.28   Q 685.91 247.03 686.16 250.80   C 686.34 253.40 687.30 254.19 689.78 254.19   Q 716.80 254.27 727.24 253.95   Q 729.74 253.87 729.87 251.34   Q 730.01 248.74 730.17 246.06   A 0.89 0.89 0.0 0 1 730.98 245.22   C 734.79 244.84 733.81 242.41 734.02 239.84   Q 735.26 224.39 733.86 206.32   Q 733.63 203.31 731.46 202.16   A 1.66 1.64 -82.3 0 1 730.61 201.03   L 729.50 195.52   A 2.02 2.01 -5.4 0 0 727.53 193.90   Q 708.43 193.74 689.51 193.95   Q 686.07 193.99 686.07 197.23   Q 686.06 200.11 685.97 203.95"/>
<path stroke="#f0e29b" vector-effect="non-scaling-stroke" d="   M 685.78 243.28   Q 689.19 242.15 692.77 242.14   Q 704.87 242.09 717.91 241.84   A 1.17 1.16 89.5 0 0 719.05 240.67   L 719.05 207.00   A 1.04 1.03 -89.4 0 0 718.04 205.96   Q 705.45 205.70 694.25 205.79   Q 688.52 205.83 685.97 203.95"/>
<path stroke="#faf5d4" vector-effect="non-scaling-stroke" d="   M 612.0285 217.2488   A 3.22 3.22 0.0 0 0 608.8029 214.0345   L 568.0429 214.1056   A 3.22 3.22 0.0 0 0 564.8286 217.3312   L 564.8715 241.9512   A 3.22 3.22 0.0 0 0 568.0971 245.1655   L 608.8571 245.0944   A 3.22 3.22 0.0 0 0 612.0714 241.8688   L 612.0285 217.2488"/>
<path stroke="#f3ede6" vector-effect="non-scaling-stroke" d="   M 769.89 423.12   A 2.90 2.90 0.0 0 0 766.99 420.22   L 622.71 420.22   A 2.90 2.90 0.0 0 0 619.81 423.12   L 619.81 477.00   A 2.90 2.90 0.0 0 0 622.71 479.90   L 766.99 479.90   A 2.90 2.90 0.0 0 0 769.89 477.00   L 769.89 423.12"/>
<path stroke="#d9e8d5" vector-effect="non-scaling-stroke" d="   M 832.50 439.27   Q 832.49 439.17 832.22 436.52   C 831.82 432.44 829.38 429.14 825.79 427.38   C 820.61 424.84 816.87 426.95 812.45 429.76   A 2.55 2.40 -60.5 0 1 811.18 430.15   C 809.67 430.19 807.66 429.76 805.86 430.20   C 801.23 431.32 800.38 434.99 799.41 439.05   A 1.66 1.66 0.0 0 1 798.86 439.93   C 796.80 441.64 795.30 442.62 794.09 444.43   C 789.81 450.87 791.42 460.29 798.19 464.30   Q 800.15 465.46 802.19 466.54   A 4.48 4.39 85.6 0 1 803.70 467.87   C 807.19 472.69 809.35 476.04 816.13 476.65   Q 828.64 477.77 833.29 465.92   A 1.75 1.74 85.2 0 1 833.98 465.11   Q 834.60 464.73 836.55 463.56   C 845.02 458.50 845.09 447.32 836.83 442.00   C 835.67 441.25 833.93 440.80 833.00 440.11   A 1.34 1.34 0.0 0 1 832.50 439.27"/>
<path stroke="#d9e8d5" vector-effect="non-scaling-stroke" d="   M 889.41 439.22   Q 889.40 439.12 889.12 436.47   C 888.71 432.39 886.25 429.09 882.65 427.34   C 877.45 424.81 873.71 426.94 869.29 429.77   A 2.55 2.40 -60.8 0 1 868.02 430.17   C 866.51 430.21 864.50 429.79 862.69 430.24   C 858.06 431.38 857.22 435.06 856.27 439.13   A 1.66 1.66 0.0 0 1 855.72 440.01   C 853.66 441.73 852.16 442.72 850.96 444.54   C 846.69 451.00 848.34 460.43 855.14 464.43   Q 857.11 465.58 859.15 466.66   A 4.48 4.39 85.4 0 1 860.67 467.98   C 864.19 472.80 866.36 476.15 873.16 476.73   Q 885.69 477.81 890.31 465.92   A 1.76 1.74 85.0 0 1 890.99 465.10   Q 891.61 464.72 893.56 463.54   C 902.03 458.44 902.06 447.24 893.76 441.94   C 892.60 441.20 890.85 440.75 889.92 440.06   A 1.34 1.34 0.0 0 1 889.41 439.22"/>
<path stroke="#c6cad0" vector-effect="non-scaling-stroke" d="   M 67.48 36.01   C 67.29 32.27 64.39 30.23 60.78 30.03   Q 52.81 29.60 42.79 30.15   C 36.36 30.50 27.30 27.83 27.30 37.49   Q 27.26 101.80 27.22 108.75   Q 27.16 116.73 27.48 118.49   Q 30.70 136.43 48.94 135.88   Q 56.12 135.67 61.07 130.35   C 66.17 124.88 67.28 121.16 67.67 113.37   Q 69.36 80.32 67.57 47.99   C 67.35 43.86 67.62 38.72 67.48 36.01"/>
<path stroke="#c6cad0" vector-effect="non-scaling-stroke" d="   M 458.9366 46.6409   A 16.80 16.10 -178.4 0 0 475.2805 63.2037   A 16.80 16.10 -178.4 0 0 492.5234 47.5791   A 16.80 16.10 -178.4 0 0 476.1795 31.0163   A 16.80 16.10 -178.4 0 0 458.9366 46.6409"/>
<path stroke="#c6cad0" vector-effect="non-scaling-stroke" d="   M 358.15 146.41   L 358.43 185.97   A 2.00 2.00 0.0 0 0 360.44 187.95   L 391.67 187.74   A 4.31 3.31 89.6 0 0 394.95 183.40   L 394.71 148.46   A 4.31 3.31 89.6 0 0 391.37 144.18   L 360.14 144.39   A 2.00 2.00 0.0 0 0 358.15 146.41"/>
<path stroke="#c6cad0" vector-effect="non-scaling-stroke" d="   M 147.7454 34.1520   A 16.26 13.18 -89.1 0 0 134.3116 50.2030   A 16.26 13.18 -89.1 0 0 147.2346 66.6680   A 16.26 13.18 -89.1 0 0 160.6684 50.6170   A 16.26 13.18 -89.1 0 0 147.7454 34.1520"/>
<path stroke="#c6cad0" vector-effect="non-scaling-stroke" d="   M 146.9815 79.9147   A 15.90 13.33 -91.4 0 0 134.0440 96.1357   A 15.90 13.33 -91.4 0 0 147.7585 111.7053   A 15.90 13.33 -91.4 0 0 160.6960 95.4843   A 15.90 13.33 -91.4 0 0 146.9815 79.9147"/>
<path stroke="#c6cad0" vector-effect="non-scaling-stroke" d="   M 40.9260 155.3056   A 13.93 12.77 -85.9 0 0 27.1927 168.2870   A 13.93 12.77 -85.9 0 0 38.9340 183.0944   A 13.93 12.77 -85.9 0 0 52.6673 170.1130   A 13.93 12.77 -85.9 0 0 40.9260 155.3056"/>
<path stroke="#c6cad0" vector-effect="non-scaling-stroke" d="   M 423.25 477.81   C 426.81 477.68 429.00 474.84 429.04 471.45   Q 429.37 439.61 429.08 404.18   Q 429.03 397.46 428.19 394.91   C 424.12 382.47 408.24 378.99 398.96 387.41   Q 393.39 392.47 393.08 398.64   Q 392.20 416.14 391.73 427.76   Q 391.43 435.24 392.27 443.70   Q 393.24 453.42 392.80 468.75   C 392.68 473.07 393.38 477.13 398.54 477.49   Q 410.10 478.27 423.25 477.81"/>
<path stroke="#c6cad0" vector-effect="non-scaling-stroke" d="   M 325.6201 464.6500   A 15.01 12.52 -177.9 0 0 340.1612 477.7116   A 15.01 12.52 -177.9 0 0 355.6199 465.7500   A 15.01 12.52 -177.9 0 0 341.0788 452.6884   A 15.01 12.52 -177.9 0 0 325.6201 464.6500"/>
</g>
<path xmlns="http://www.w3.org/2000/svg" fill="#ffffff" d="   M 933.00 0.00   L 933.00 508.00   L 0.00 508.00   L 0.00 0.00   L 933.00 0.00   Z   M 22.23 186.60   Q 28.67 187.73 35.01 188.65   C 55.25 191.56 63.89 165.51 49.46 153.26   C 41.89 146.84 31.30 150.03 22.26 151.54   L 22.13 141.03   L 71.48 141.22   A 0.83 0.82 -89.7 0 0 72.31 140.39   L 72.29 24.80   L 164.18 24.61   A 1.23 1.22 88.5 0 1 165.41 25.79   L 165.50 28.13   Q 158.57 28.42 151.73 28.39   Q 145.12 28.36 142.55 29.35   Q 138.06 31.08 135.35 34.99   Q 126.10 48.32 133.50 62.63   Q 138.70 72.71 150.25 72.55   Q 157.85 72.44 165.65 71.91   L 165.58 73.76   Q 156.02 73.53 146.75 73.81   C 139.80 74.02 134.14 80.29 131.87 86.51   Q 127.40 98.73 134.70 110.05   Q 137.21 113.94 142.08 116.23   Q 144.98 117.60 151.61 117.77   Q 157.62 117.93 162.50 118.02   Q 163.97 118.05 165.59 116.55   L 165.66 119.55   Q 165.61 120.35 164.31 120.01   A 9.48 2.77 25.1 0 0 161.08 119.51   L 137.42 119.61   A 1.05 1.05 0.0 0 0 136.37 120.66   L 136.61 198.25   L 132.30 198.30   A 0.92 0.91 89.7 0 0 131.40 199.22   L 131.40 201.67   A 1.02 1.01 90.0 0 0 132.41 202.69   L 169.65 202.69   A 0.33 0.33 0.0 0 0 169.98 202.36   L 169.98 25.54   A 0.62 0.61 -0.0 0 1 170.60 24.93   L 350.14 24.93   A 0.74 0.73 -0.0 0 1 350.88 25.66   L 350.88 295.75   A 1.05 1.05 0.0 0 1 349.83 296.80   L 325.27 296.80   A 0.92 0.91 0.0 0 0 324.35 297.71   L 324.35 300.45   A 1.07 1.07 0.0 0 0 325.42 301.52   L 398.18 301.40   A 1.41 1.40 -68.7 0 0 399.22 300.94   Q 399.73 300.37 399.48 299.17   L 401.36 296.85   A 2.69 2.64 -20.9 0 0 401.92 295.63   Q 403.17 288.30 403.19 283.25   Q 403.25 268.00 403.17 250.57   A 0.73 0.73 0.0 0 0 402.41 249.84   L 398.07 250.00   Q 398.02 219.78 398.01 190.25   C 398.01 186.11 397.26 181.82 397.33 178.07   Q 398.35 128.10 398.00 69.44   A 1.52 1.51 89.8 0 1 399.51 67.91   L 502.48 67.91   A 0.88 0.88 0.0 0 0 503.36 67.03   L 503.32 24.69   L 772.98 24.79   A 0.54 0.53 90.0 0 1 773.51 25.33   L 773.51 57.59   A 0.82 0.82 0.0 0 0 774.33 58.41   L 782.06 58.41   A 0.80 0.79 -0.0 0 0 782.86 57.62   L 782.86 26.14   A 0.54 0.53 -90.0 0 1 783.39 25.60   L 911.01 25.60   A 0.23 0.23 0.0 0 1 911.24 25.83   L 911.24 480.82   A 0.55 0.55 0.0 0 1 910.69 481.37   L 783.23 481.37   A 0.42 0.42 0.0 0 1 782.81 480.95   L 782.81 425.52   A 0.54 0.54 0.0 0 0 782.27 424.98   L 774.05 424.98   A 0.49 0.48 0.0 0 0 773.56 425.46   L 773.56 481.92   A 0.37 0.37 0.0 0 1 773.19 482.29   L 581.01 482.28   L 581.20 458.00   A 0.89 0.88 0.3 0 0 580.31 457.11   L 517.75 457.11   A 0.93 0.93 0.0 0 0 516.82 458.05   L 517.10 482.29   L 439.08 482.22   A 0.68 0.68 0.0 0 1 438.40 481.54   L 438.40 378.58   A 0.45 0.44 90.0 0 1 438.84 378.13   L 479.62 378.13   A 0.79 0.79 0.0 0 0 480.41 377.34   L 480.41 374.43   A 0.82 0.81 0.0 0 0 479.59 373.62   L 475.93 373.62   A 0.50 0.50 0.0 0 1 475.43 373.12   L 475.43 357.47   A 0.64 0.64 0.0 0 0 474.79 356.83   L 471.80 356.83   A 0.79 0.78 90.0 0 0 471.02 357.62   L 471.02 373.32   A 0.30 0.29 0.0 0 1 470.72 373.61   L 372.03 373.61   A 0.45 0.44 90.0 0 0 371.59 374.06   L 371.59 377.63   A 0.56 0.56 0.0 0 0 372.14 378.19   L 387.92 378.27   Q 387.71 403.10 388.50 427.80   C 388.77 436.25 388.41 443.16 388.01 451.50   Q 387.37 464.68 387.99 479.25   Q 388.04 480.54 389.47 482.24   L 363.14 482.26   C 363.65 475.44 363.94 466.29 361.02 460.57   C 354.85 448.48 339.08 444.41 327.69 452.24   Q 320.83 456.96 319.04 463.44   Q 316.95 471.00 318.19 482.23   L 281.82 482.26   Q 282.33 470.82 282.10 459.51   Q 281.98 453.56 280.68 450.79   C 277.61 444.24 269.56 441.20 263.10 443.90   Q 255.09 447.26 254.21 456.25   Q 253.38 464.78 254.70 482.21   L 235.66 482.21   A 0.78 0.78 0.0 0 1 234.88 481.43   L 234.87 408.42   Q 236.81 410.50 238.49 410.57   Q 252.63 411.13 266.01 410.73   Q 268.12 410.67 269.45 409.94   A 0.92 0.91 75.6 0 0 269.92 409.14   L 269.70 378.16   L 319.75 378.12   A 0.88 0.87 0.0 0 0 320.63 377.25   L 320.63 374.19   A 0.58 0.57 0.0 0 0 320.05 373.62   L 226.08 373.62   A 0.47 0.47 0.0 0 0 225.61 374.09   L 225.61 428.55   A 1.05 1.04 -0.0 0 1 224.56 429.59   L 194.26 429.59   A 0.71 0.70 -90.0 0 0 193.56 430.30   L 193.56 437.87   A 0.77 0.76 90.0 0 0 194.32 438.64   L 224.67 438.64   A 0.89 0.88 -0.0 0 1 225.56 439.52   L 225.56 490.97   A 0.58 0.58 0.0 0 0 226.14 491.55   L 921.25 491.55   A 0.52 0.51 0.0 0 0 921.77 491.04   L 921.77 15.76   A 0.67 0.67 0.0 0 0 921.10 15.09   C 874.60 15.02 827.62 14.68 780.67 15.07   Q 764.62 15.20 747.50 15.20   Q 578.53 15.18 532.69 15.15   C 510.88 15.14 488.48 15.62 466.91 15.42   Q 444.51 15.21 417.58 15.23   Q 357.12 15.30 309.75 15.20   C 240.80 15.07 192.40 15.41 132.78 15.17   Q 106.75 15.06 68.83 15.18   C 50.37 15.24 32.56 15.84 13.65 15.56   A 0.69 0.68 0.4 0 0 12.95 16.24   L 12.95 438.27   A 0.52 0.52 0.0 0 0 13.47 438.79   L 139.09 438.79   A 0.56 0.56 0.0 0 0 139.65 438.23   L 139.65 430.10   A 0.63 0.62 0.0 0 0 139.02 429.48   L 115.67 429.48   A 0.50 0.50 0.0 0 1 115.17 428.98   L 115.17 395.16   A 0.33 0.33 0.0 0 0 114.84 394.83   L 110.91 394.83   A 0.39 0.39 0.0 0 0 110.52 395.22   L 110.52 428.83   A 0.67 0.67 0.0 0 1 109.85 429.50   L 22.86 429.50   A 0.48 0.47 -0.0 0 1 22.38 429.03   L 22.38 302.39   A 0.99 0.99 0.0 0 1 23.37 301.40   L 110.21 301.40   A 0.37 0.37 0.0 0 1 110.58 301.77   L 110.58 336.52   A 0.71 0.71 0.0 0 0 111.29 337.23   L 114.47 337.23   A 0.63 0.63 0.0 0 0 115.10 336.60   L 115.10 301.75   A 0.33 0.33 0.0 0 1 115.43 301.42   L 273.31 301.42   A 0.83 0.82 -90.0 0 0 274.13 300.59   L 274.13 297.61   A 0.80 0.80 0.0 0 0 273.33 296.81   L 115.60 296.81   A 0.48 0.48 0.0 0 1 115.12 296.33   L 115.12 260.39   A 0.49 0.49 0.0 0 0 114.63 259.90   L 111.05 259.90   A 0.48 0.47 -90.0 0 0 110.58 260.38   L 110.58 296.22   A 0.58 0.58 0.0 0 1 110.00 296.80   L 23.10 296.80   A 0.73 0.73 0.0 0 1 22.37 296.07   L 22.37 203.59   A 0.92 0.92 0.0 0 1 23.29 202.67   L 81.55 202.67   A 0.70 0.70 0.0 0 0 82.25 201.97   L 82.25 199.00   A 0.71 0.71 0.0 0 0 81.54 198.29   L 22.92 198.29   A 0.60 0.60 0.0 0 1 22.32 197.69   L 22.23 186.60   Z   M 871.18 34.12   Q 867.02 34.32 865.89 34.86   C 862.25 36.59 860.67 39.94 860.02 43.81   A 4.82 4.60 65.9 0 1 859.47 45.36   C 855.64 52.00 853.78 58.01 858.00 65.15   Q 863.75 74.88 876.51 74.22   A 2.70 2.68 -26.5 0 1 878.35 74.83   Q 886.93 81.94 895.47 75.51   Q 897.09 74.29 898.51 71.49   Q 900.26 68.06 902.73 65.98   C 908.76 60.92 907.92 53.11 904.51 46.96   A 3.10 3.09 33.6 0 1 904.13 45.10   Q 904.69 39.97 901.15 36.97   C 899.77 35.79 897.06 35.14 895.62 34.52   A 3.99 3.94 81.9 0 1 894.16 33.41   C 892.19 31.02 889.64 28.38 886.23 27.83   C 881.77 27.11 876.51 28.32 873.77 31.95   Q 872.67 33.39 872.23 33.73   A 1.77 1.77 0.0 0 1 871.18 34.12   Z   M 840.87 57.01   Q 844.88 53.70 846.06 49.61   C 848.75 40.24 839.54 31.75 830.62 34.64   Q 828.66 35.28 826.74 36.20   A 1.02 1.01 -42.9 0 1 825.80 36.17   Q 824.62 35.50 823.67 34.89   C 816.65 30.41 806.98 31.87 802.50 39.22   Q 798.63 45.58 802.04 51.94   A 1.30 1.29 -36.2 0 1 801.80 53.48   C 798.51 56.70 797.13 61.50 799.12 65.98   Q 800.31 68.69 804.16 70.78   Q 811.77 74.92 819.72 72.48   A 0.90 0.89 -22.0 0 1 820.77 72.92   Q 824.75 80.35 832.67 79.93   C 837.67 79.67 842.28 76.55 843.83 71.77   Q 846.08 64.82 840.75 58.05   A 0.75 0.75 0.0 0 1 840.87 57.01   Z   M 197.64 53.48   A 13.21 13.21 0.0 0 0 184.43 40.27   A 13.21 13.21 0.0 0 0 171.22 53.48   A 13.21 13.21 0.0 0 0 184.43 66.69   A 13.21 13.21 0.0 0 0 197.64 53.48   Z   M 172.66 166.73   A 2.27 2.25 87.0 0 0 174.99 168.84   C 183.98 168.52 192.08 169.07 202.37 169.11   Q 241.23 169.26 301.26 169.07   Q 303.02 169.06 304.37 168.56   A 1.08 1.08 0.0 0 0 305.04 167.84   Q 305.53 166.11 305.54 164.50   Q 305.54 162.69 305.64 71.48   Q 305.64 68.38 302.62 68.38   Q 202.21 68.34 197.50 68.40   Q 177.78 68.66 175.24 68.60   Q 172.19 68.53 172.02 71.72   C 171.53 80.44 172.24 92.72 171.99 101.43   Q 171.66 113.39 171.90 122.22   C 172.19 132.32 171.88 142.35 171.87 151.35   C 171.86 157.11 172.34 162.12 172.66 166.73   Z   M 522.04 190.17   L 524.43 192.21   A 1.95 1.86 71.5 0 0 525.17 192.60   C 530.14 193.92 536.41 193.97 541.50 193.97   Q 573.39 193.97 639.50 194.07   Q 644.23 194.07 650.79 192.90   A 2.35 2.33 18.6 0 0 651.93 192.34   L 654.23 190.29   L 665.15 189.77   A 2.20 2.20 0.0 0 0 667.24 187.68   C 667.80 177.29 667.58 163.93 667.34 144.00   C 667.30 140.53 665.31 140.87 662.22 140.70   Q 658.52 140.49 657.40 140.43   A 1.00 0.99 -4.1 0 1 656.47 139.63   L 655.93 136.95   A 2.03 2.03 0.0 0 0 653.94 135.32   L 522.92 135.32   A 2.24 2.23 -84.3 0 0 520.73 137.12   L 520.16 139.95   A 0.75 0.75 0.0 0 1 519.49 140.55   L 511.71 141.28   A 2.09 2.08 -85.5 0 0 509.87 142.86   Q 509.44 144.62 509.45 147.50   Q 509.54 168.17 509.42 187.27   A 2.32 2.30 2.0 0 0 511.60 189.59   L 522.04 190.17   Z   M 658.01 297.06   Q 659.16 282.90 658.34 269.01   Q 658.17 266.10 655.23 266.09   Q 589.59 265.79 524.00 266.06   C 521.10 266.08 518.98 265.64 518.77 268.98   Q 517.83 283.81 518.92 297.01   L 471.56 296.90   A 0.51 0.51 0.0 0 0 471.05 297.41   L 471.05 307.04   A 0.83 0.83 0.0 0 0 471.88 307.87   L 474.66 307.87   A 0.82 0.82 0.0 0 0 475.48 307.05   L 475.48 301.87   A 0.46 0.46 0.0 0 1 475.94 301.41   L 595.84 301.38   L 595.59 328.34   A 0.72 0.72 0.0 0 0 596.31 329.07   L 629.48 329.09   Q 621.18 333.18 619.50 341.90   Q 618.24 348.40 621.48 353.24   Q 627.98 362.96 639.22 360.83   C 644.87 359.76 649.72 355.14 651.39 349.93   C 654.14 341.36 649.69 332.55 641.50 329.07   L 674.49 329.06   A 0.53 0.53 0.0 0 0 675.02 328.52   L 674.79 301.32   L 772.55 301.30   A 0.93 0.93 0.0 0 1 773.48 302.23   L 773.48 310.93   A 0.85 0.85 0.0 0 0 774.33 311.78   L 781.92 311.78   A 0.88 0.88 0.0 0 0 782.80 310.90   L 782.80 160.06   A 0.26 0.26 0.0 0 0 782.54 159.80   L 773.79 159.80   A 0.24 0.23 0.0 0 0 773.55 160.03   L 773.55 296.40   A 0.58 0.58 0.0 0 1 772.97 296.98   L 658.01 297.06   Z   M 197.51 184.42   A 13.19 13.19 0.0 0 0 184.32 171.23   A 13.19 13.19 0.0 0 0 171.13 184.42   A 13.19 13.19 0.0 0 0 184.32 197.61   A 13.19 13.19 0.0 0 0 197.51 184.42   Z   M 685.97 203.95   Q 683.29 205.92 682.99 209.00   Q 681.41 224.89 683.27 240.75   Q 683.42 242.03 685.78 243.28   Q 685.91 247.03 686.16 250.80   C 686.34 253.40 687.30 254.19 689.78 254.19   Q 716.80 254.27 727.24 253.95   Q 729.74 253.87 729.87 251.34   Q 730.01 248.74 730.17 246.06   A 0.89 0.89 0.0 0 1 730.98 245.22   C 734.79 244.84 733.81 242.41 734.02 239.84   Q 735.26 224.39 733.86 206.32   Q 733.63 203.31 731.46 202.16   A 1.66 1.64 -82.3 0 1 730.61 201.03   L 729.50 195.52   A 2.02 2.01 -5.4 0 0 727.53 193.90   Q 708.43 193.74 689.51 193.95   Q 686.07 193.99 686.07 197.23   Q 686.06 200.11 685.97 203.95   Z   M 612.0285 217.2488   A 3.22 3.22 0.0 0 0 608.8029 214.0345   L 568.0429 214.1056   A 3.22 3.22 0.0 0 0 564.8286 217.3312   L 564.8715 241.9512   A 3.22 3.22 0.0 0 0 568.0971 245.1655   L 608.8571 245.0944   A 3.22 3.22 0.0 0 0 612.0714 241.8688   L 612.0285 217.2488   Z   M 769.89 423.12   A 2.90 2.90 0.0 0 0 766.99 420.22   L 622.71 420.22   A 2.90 2.90 0.0 0 0 619.81 423.12   L 619.81 477.00   A 2.90 2.90 0.0 0 0 622.71 479.90   L 766.99 479.90   A 2.90 2.90 0.0 0 0 769.89 477.00   L 769.89 423.12   Z   M 832.50 439.27   Q 832.49 439.17 832.22 436.52   C 831.82 432.44 829.38 429.14 825.79 427.38   C 820.61 424.84 816.87 426.95 812.45 429.76   A 2.55 2.40 -60.5 0 1 811.18 430.15   C 809.67 430.19 807.66 429.76 805.86 430.20   C 801.23 431.32 800.38 434.99 799.41 439.05   A 1.66 1.66 0.0 0 1 798.86 439.93   C 796.80 441.64 795.30 442.62 794.09 444.43   C 789.81 450.87 791.42 460.29 798.19 464.30   Q 800.15 465.46 802.19 466.54   A 4.48 4.39 85.6 0 1 803.70 467.87   C 807.19 472.69 809.35 476.04 816.13 476.65   Q 828.64 477.77 833.29 465.92   A 1.75 1.74 85.2 0 1 833.98 465.11   Q 834.60 464.73 836.55 463.56   C 845.02 458.50 845.09 447.32 836.83 442.00   C 835.67 441.25 833.93 440.80 833.00 440.11   A 1.34 1.34 0.0 0 1 832.50 439.27   Z   M 889.41 439.22   Q 889.40 439.12 889.12 436.47   C 888.71 432.39 886.25 429.09 882.65 427.34   C 877.45 424.81 873.71 426.94 869.29 429.77   A 2.55 2.40 -60.8 0 1 868.02 430.17   C 866.51 430.21 864.50 429.79 862.69 430.24   C 858.06 431.38 857.22 435.06 856.27 439.13   A 1.66 1.66 0.0 0 1 855.72 440.01   C 853.66 441.73 852.16 442.72 850.96 444.54   C 846.69 451.00 848.34 460.43 855.14 464.43   Q 857.11 465.58 859.15 466.66   A 4.48 4.39 85.4 0 1 860.67 467.98   C 864.19 472.80 866.36 476.15 873.16 476.73   Q 885.69 477.81 890.31 465.92   A 1.76 1.74 85.0 0 1 890.99 465.10   Q 891.61 464.72 893.56 463.54   C 902.03 458.44 902.06 447.24 893.76 441.94   C 892.60 441.20 890.85 440.75 889.92 440.06   A 1.34 1.34 0.0 0 1 889.41 439.22   Z"/>
<path xmlns="http://www.w3.org/2000/svg" fill="#484f54" d="   M 269.70 378.16   L 235.33 378.10   A 0.51 0.51 0.0 0 0 234.82 378.61   L 234.87 408.42   L 234.88 481.43   A 0.78 0.78 0.0 0 0 235.66 482.21   L 254.70 482.21   L 281.82 482.26   L 318.19 482.23   L 363.14 482.26   L 389.47 482.24   L 433.22 482.23   A 0.72 0.72 0.0 0 0 433.94 481.51   L 433.94 378.75   A 0.51 0.51 0.0 0 0 433.43 378.24   L 387.92 378.27   L 372.14 378.19   A 0.56 0.56 0.0 0 1 371.59 377.63   L 371.59 374.06   A 0.45 0.44 -90.0 0 1 372.03 373.61   L 470.72 373.61   A 0.30 0.29 -0.0 0 0 471.02 373.32   L 471.02 357.62   A 0.79 0.78 -90.0 0 1 471.80 356.83   L 474.79 356.83   A 0.64 0.64 0.0 0 1 475.43 357.47   L 475.43 373.12   A 0.50 0.50 0.0 0 0 475.93 373.62   L 479.59 373.62   A 0.82 0.81 0.0 0 1 480.41 374.43   L 480.41 377.34   A 0.79 0.79 0.0 0 1 479.62 378.13   L 438.84 378.13   A 0.45 0.44 90.0 0 0 438.40 378.58   L 438.40 481.54   A 0.68 0.68 0.0 0 0 439.08 482.22   L 517.10 482.29   L 581.01 482.28   L 773.19 482.29   A 0.37 0.37 0.0 0 0 773.56 481.92   L 773.56 425.46   A 0.49 0.48 -0.0 0 1 774.05 424.98   L 782.27 424.98   A 0.54 0.54 0.0 0 1 782.81 425.52   L 782.81 480.95   A 0.42 0.42 0.0 0 0 783.23 481.37   L 910.69 481.37   A 0.55 0.55 0.0 0 0 911.24 480.82   L 911.24 25.83   A 0.23 0.23 0.0 0 0 911.01 25.60   L 783.39 25.60   A 0.54 0.53 90.0 0 0 782.86 26.14   L 782.86 57.62   A 0.80 0.79 -0.0 0 1 782.06 58.41   L 774.33 58.41   A 0.82 0.82 0.0 0 1 773.51 57.59   L 773.51 25.33   A 0.54 0.53 -90.0 0 0 772.98 24.79   L 503.32 24.69   L 355.88 24.89   A 0.58 0.58 0.0 0 0 355.30 25.47   L 355.29 249.83   L 355.11 295.81   A 1.14 1.13 89.5 0 0 356.26 296.95   C 371.85 296.70 384.65 296.62 397.82 297.33   A 1.40 1.36 -22.1 0 1 398.70 297.69   Q 399.41 298.31 399.48 299.17   Q 399.73 300.37 399.22 300.94   A 1.41 1.40 -68.7 0 1 398.18 301.40   L 325.42 301.52   A 1.07 1.07 0.0 0 1 324.35 300.45   L 324.35 297.71   A 0.92 0.91 -0.0 0 1 325.27 296.80   L 349.83 296.80   A 1.05 1.05 0.0 0 0 350.88 295.75   L 350.88 25.66   A 0.74 0.73 -0.0 0 0 350.14 24.93   L 170.60 24.93   A 0.62 0.61 0.0 0 0 169.98 25.54   L 169.98 202.36   A 0.33 0.33 0.0 0 1 169.65 202.69   L 132.41 202.69   A 1.02 1.01 90.0 0 1 131.40 201.67   L 131.40 199.22   A 0.92 0.91 89.7 0 1 132.30 198.30   L 136.61 198.25   L 164.92 198.29   A 0.79 0.79 0.0 0 0 165.71 197.50   L 165.66 119.55   L 165.59 116.55   L 165.58 73.76   L 165.65 71.91   L 165.50 28.13   L 165.41 25.79   A 1.23 1.22 88.5 0 0 164.18 24.61   L 72.29 24.80   L 22.79 24.65   A 0.70 0.70 0.0 0 0 22.09 25.35   L 22.13 141.03   L 22.26 151.54   L 22.23 186.60   L 22.32 197.69   A 0.60 0.60 0.0 0 0 22.92 198.29   L 81.54 198.29   A 0.71 0.71 0.0 0 1 82.25 199.00   L 82.25 201.97   A 0.70 0.70 0.0 0 1 81.55 202.67   L 23.29 202.67   A 0.92 0.92 0.0 0 0 22.37 203.59   L 22.37 296.07   A 0.73 0.73 0.0 0 0 23.10 296.80   L 110.00 296.80   A 0.58 0.58 0.0 0 0 110.58 296.22   L 110.58 260.38   A 0.48 0.47 -90.0 0 1 111.05 259.90   L 114.63 259.90   A 0.49 0.49 0.0 0 1 115.12 260.39   L 115.12 296.33   A 0.48 0.48 0.0 0 0 115.60 296.81   L 273.33 296.81   A 0.80 0.80 0.0 0 1 274.13 297.61   L 274.13 300.59   A 0.83 0.82 -90.0 0 1 273.31 301.42   L 115.43 301.42   A 0.33 0.33 0.0 0 0 115.10 301.75   L 115.10 336.60   A 0.63 0.63 0.0 0 1 114.47 337.23   L 111.29 337.23   A 0.71 0.71 0.0 0 1 110.58 336.52   L 110.58 301.77   A 0.37 0.37 0.0 0 0 110.21 301.40   L 23.37 301.40   A 0.99 0.99 0.0 0 0 22.38 302.39   L 22.38 429.03   A 0.48 0.47 0.0 0 0 22.86 429.50   L 109.85 429.50   A 0.67 0.67 0.0 0 0 110.52 428.83   L 110.52 395.22   A 0.39 0.39 0.0 0 1 110.91 394.83   L 114.84 394.83   A 0.33 0.33 0.0 0 1 115.17 395.16   L 115.17 428.98   A 0.50 0.50 0.0 0 0 115.67 429.48   L 139.02 429.48   A 0.63 0.62 -0.0 0 1 139.65 430.10   L 139.65 438.23   A 0.56 0.56 0.0 0 1 139.09 438.79   L 13.47 438.79   A 0.52 0.52 0.0 0 1 12.95 438.27   L 12.95 16.24   A 0.69 0.68 0.4 0 1 13.65 15.56   C 32.56 15.84 50.37 15.24 68.83 15.18   Q 106.75 15.06 132.78 15.17   C 192.40 15.41 240.80 15.07 309.75 15.20   Q 357.12 15.30 417.58 15.23   Q 444.51 15.21 466.91 15.42   C 488.48 15.62 510.88 15.14 532.69 15.15   Q 578.53 15.18 747.50 15.20   Q 764.62 15.20 780.67 15.07   C 827.62 14.68 874.60 15.02 921.10 15.09   A 0.67 0.67 0.0 0 1 921.77 15.76   L 921.77 491.04   A 0.52 0.51 0.0 0 1 921.25 491.55   L 226.14 491.55   A 0.58 0.58 0.0 0 1 225.56 490.97   L 225.56 439.52   A 0.89 0.88 0.0 0 0 224.67 438.64   L 194.32 438.64   A 0.77 0.76 90.0 0 1 193.56 437.87   L 193.56 430.30   A 0.71 0.70 -90.0 0 1 194.26 429.59   L 224.56 429.59   A 1.05 1.04 0.0 0 0 225.61 428.55   L 225.61 374.09   A 0.47 0.47 0.0 0 1 226.08 373.62   L 320.05 373.62   A 0.58 0.57 0.0 0 1 320.63 374.19   L 320.63 377.25   A 0.88 0.87 -0.0 0 1 319.75 378.12   L 269.70 378.16   Z"/>
<path xmlns="http://www.w3.org/2000/svg" fill="#d8d9de" d="   M 72.29 24.80   L 72.31 140.39   A 0.83 0.82 -89.7 0 1 71.48 141.22   L 22.13 141.03   L 22.09 25.35   A 0.70 0.70 0.0 0 1 22.79 24.65   L 72.29 24.80   Z   M 67.48 36.01   C 67.29 32.27 64.39 30.23 60.78 30.03   Q 52.81 29.60 42.79 30.15   C 36.36 30.50 27.30 27.83 27.30 37.49   Q 27.26 101.80 27.22 108.75   Q 27.16 116.73 27.48 118.49   Q 30.70 136.43 48.94 135.88   Q 56.12 135.67 61.07 130.35   C 66.17 124.88 67.28 121.16 67.67 113.37   Q 69.36 80.32 67.57 47.99   C 67.35 43.86 67.62 38.72 67.48 36.01   Z"/>
<path xmlns="http://www.w3.org/2000/svg" fill="#d8d9de" d="   M 503.32 24.69   L 503.36 67.03   A 0.88 0.88 0.0 0 1 502.48 67.91   L 399.51 67.91   A 1.52 1.51 89.8 0 0 398.00 69.44   Q 398.35 128.10 397.33 178.07   C 397.26 181.82 398.01 186.11 398.01 190.25   Q 398.02 219.78 398.07 250.00   L 355.29 249.83   L 355.30 25.47   A 0.58 0.58 0.0 0 1 355.88 24.89   L 503.32 24.69   Z   M 458.9366 46.6409   A 16.80 16.10 -178.4 0 0 475.2805 63.2037   A 16.80 16.10 -178.4 0 0 492.5234 47.5791   A 16.80 16.10 -178.4 0 0 476.1795 31.0163   A 16.80 16.10 -178.4 0 0 458.9366 46.6409   Z   M 358.15 146.41   L 358.43 185.97   A 2.00 2.00 0.0 0 0 360.44 187.95   L 391.67 187.74   A 4.31 3.31 89.6 0 0 394.95 183.40   L 394.71 148.46   A 4.31 3.31 89.6 0 0 391.37 144.18   L 360.14 144.39   A 2.00 2.00 0.0 0 0 358.15 146.41   Z"/>
<path xmlns="http://www.w3.org/2000/svg" fill="#b2d1ab" d="   M 872.23 33.73   Q 872.67 33.39 873.77 31.95   C 876.51 28.32 881.77 27.11 886.23 27.83   C 889.64 28.38 892.19 31.02 894.16 33.41   A 3.99 3.94 81.9 0 0 895.62 34.52   C 897.06 35.14 899.77 35.79 901.15 36.97   Q 904.69 39.97 904.13 45.10   A 3.10 3.09 33.6 0 0 904.51 46.96   C 907.92 53.11 908.76 60.92 902.73 65.98   Q 900.26 68.06 898.51 71.49   Q 897.09 74.29 895.47 75.51   Q 886.93 81.94 878.35 74.83   A 2.70 2.68 -26.5 0 0 876.51 74.22   Q 863.75 74.88 858.00 65.15   C 853.78 58.01 855.64 52.00 859.47 45.36   A 4.82 4.60 65.9 0 0 860.02 43.81   C 860.67 39.94 862.25 36.59 865.89 34.86   Q 867.02 34.32 871.18 34.12   A 1.77 1.77 0.0 0 0 872.23 33.73   Z"/>
<path xmlns="http://www.w3.org/2000/svg" fill="#d8d9de" d="   M 165.50 28.13   L 165.65 71.91   Q 157.85 72.44 150.25 72.55   Q 138.70 72.71 133.50 62.63   Q 126.10 48.32 135.35 34.99   Q 138.06 31.08 142.55 29.35   Q 145.12 28.36 151.73 28.39   Q 158.57 28.42 165.50 28.13   Z   M 147.7454 34.1520   A 16.26 13.18 -89.1 0 0 134.3116 50.2030   A 16.26 13.18 -89.1 0 0 147.2346 66.6680   A 16.26 13.18 -89.1 0 0 160.6684 50.6170   A 16.26 13.18 -89.1 0 0 147.7454 34.1520   Z"/>
<path xmlns="http://www.w3.org/2000/svg" fill="#b3bac2" d="   M 60.78 30.03   C 64.39 30.23 67.29 32.27 67.48 36.01   C 67.62 38.72 67.35 43.86 67.57 47.99   Q 69.36 80.32 67.67 113.37   C 67.28 121.16 66.17 124.88 61.07 130.35   Q 56.12 135.67 48.94 135.88   Q 30.70 136.43 27.48 118.49   Q 27.16 116.73 27.22 108.75   Q 27.26 101.80 27.30 37.49   C 27.30 27.83 36.36 30.50 42.79 30.15   Q 52.81 29.60 60.78 30.03   Z"/>
<ellipse xmlns="http://www.w3.org/2000/svg" fill="#b3bac2" cx="0.00" cy="0.00" transform="translate(475.73,47.11) rotate(-178.4)" rx="16.80" ry="16.10"/>
<path xmlns="http://www.w3.org/2000/svg" fill="#b2d1ab" d="   M 840.75 58.05   Q 846.08 64.82 843.83 71.77   C 842.28 76.55 837.67 79.67 832.67 79.93   Q 824.75 80.35 820.77 72.92   A 0.90 0.89 -22.0 0 0 819.72 72.48   Q 811.77 74.92 804.16 70.78   Q 800.31 68.69 799.12 65.98   C 797.13 61.50 798.51 56.70 801.80 53.48   A 1.30 1.29 -36.2 0 0 802.04 51.94   Q 798.63 45.58 802.50 39.22   C 806.98 31.87 816.65 30.41 823.67 34.89   Q 824.62 35.50 825.80 36.17   A 1.02 1.01 -42.9 0 0 826.74 36.20   Q 828.66 35.28 830.62 34.64   C 839.54 31.75 848.75 40.24 846.06 49.61   Q 844.88 53.70 840.87 57.01   A 0.75 0.75 0.0 0 0 840.75 58.05   Z"/>
<ellipse xmlns="http://www.w3.org/2000/svg" fill="#b3bac2" cx="0.00" cy="0.00" transform="translate(147.49,50.41) rotate(-89.1)" rx="16.26" ry="13.18"/>
<circle xmlns="http://www.w3.org/2000/svg" fill="#b3bac2" cx="184.43" cy="53.48" r="13.21"/>
<path xmlns="http://www.w3.org/2000/svg" fill="#e7dacc" d="   M 172.66 166.73   C 172.34 162.12 171.86 157.11 171.87 151.35   C 171.88 142.35 172.19 132.32 171.90 122.22   Q 171.66 113.39 171.99 101.43   C 172.24 92.72 171.53 80.44 172.02 71.72   Q 172.19 68.53 175.24 68.60   Q 177.78 68.66 197.50 68.40   Q 202.21 68.34 302.62 68.38   Q 305.64 68.38 305.64 71.48   Q 305.54 162.69 305.54 164.50   Q 305.53 166.11 305.04 167.84   A 1.08 1.08 0.0 0 1 304.37 168.56   Q 303.02 169.06 301.26 169.07   Q 241.23 169.26 202.37 169.11   C 192.08 169.07 183.98 168.52 174.99 168.84   A 2.27 2.25 87.0 0 1 172.66 166.73   Z"/>
<path xmlns="http://www.w3.org/2000/svg" fill="#d8d9de" d="   M 165.58 73.76   L 165.59 116.55   Q 163.97 118.05 162.50 118.02   Q 157.62 117.93 151.61 117.77   Q 144.98 117.60 142.08 116.23   Q 137.21 113.94 134.70 110.05   Q 127.40 98.73 131.87 86.51   C 134.14 80.29 139.80 74.02 146.75 73.81   Q 156.02 73.53 165.58 73.76   Z   M 146.9815 79.9147   A 15.90 13.33 -91.4 0 0 134.0440 96.1357   A 15.90 13.33 -91.4 0 0 147.7585 111.7053   A 15.90 13.33 -91.4 0 0 160.6960 95.4843   A 15.90 13.33 -91.4 0 0 146.9815 79.9147   Z"/>
<ellipse xmlns="http://www.w3.org/2000/svg" fill="#b3bac2" cx="0.00" cy="0.00" transform="translate(147.37,95.81) rotate(-91.4)" rx="15.90" ry="13.33"/>
<path xmlns="http://www.w3.org/2000/svg" fill="#d8d9de" d="   M 165.66 119.55   L 165.71 197.50   A 0.79 0.79 0.0 0 1 164.92 198.29   L 136.61 198.25   L 136.37 120.66   A 1.05 1.05 0.0 0 1 137.42 119.61   L 161.08 119.51   A 9.48 2.77 25.1 0 1 164.31 120.01   Q 165.61 120.35 165.66 119.55   Z"/>
<path xmlns="http://www.w3.org/2000/svg" fill="#ebd98d" d="   M 654.23 190.29   Q 652.63 187.17 652.72 180.96   Q 652.94 166.80 652.63 155.18   A 1.48 1.48 0.0 0 0 651.15 153.74   L 525.30 153.74   A 1.60 1.59 -89.6 0 0 523.71 155.32   Q 523.53 166.59 523.59 182.98   Q 523.61 188.25 522.04 190.17   L 511.60 189.59   A 2.32 2.30 2.0 0 1 509.42 187.27   Q 509.54 168.17 509.45 147.50   Q 509.44 144.62 509.87 142.86   A 2.09 2.08 -85.5 0 1 511.71 141.28   L 519.49 140.55   A 0.75 0.75 0.0 0 0 520.16 139.95   L 520.73 137.12   A 2.24 2.23 -84.3 0 1 522.92 135.32   L 653.94 135.32   A 2.03 2.03 0.0 0 1 655.93 136.95   L 656.47 139.63   A 1.00 0.99 -4.1 0 0 657.40 140.43   Q 658.52 140.49 662.22 140.70   C 665.31 140.87 667.30 140.53 667.34 144.00   C 667.58 163.93 667.80 177.29 667.24 187.68   A 2.20 2.20 0.0 0 1 665.15 189.77   L 654.23 190.29   Z"/>
<path xmlns="http://www.w3.org/2000/svg" fill="#b3bac2" d="   M 358.15 146.41   A 2.00 2.00 0.0 0 1 360.14 144.39   L 391.37 144.18   A 4.31 3.31 89.6 0 1 394.71 148.46   L 394.95 183.40   A 4.31 3.31 89.6 0 1 391.67 187.74   L 360.44 187.95   A 2.00 2.00 0.0 0 1 358.43 185.97   L 358.15 146.41   Z"/>
<path xmlns="http://www.w3.org/2000/svg" fill="#d8d9de" d="   M 22.23 186.60   L 22.26 151.54   C 31.30 150.03 41.89 146.84 49.46 153.26   C 63.89 165.51 55.25 191.56 35.01 188.65   Q 28.67 187.73 22.23 186.60   Z   M 40.9260 155.3056   A 13.93 12.77 -85.9 0 0 27.1927 168.2870   A 13.93 12.77 -85.9 0 0 38.9340 183.0944   A 13.93 12.77 -85.9 0 0 52.6673 170.1130   A 13.93 12.77 -85.9 0 0 40.9260 155.3056   Z"/>
<path xmlns="http://www.w3.org/2000/svg" fill="#f4eba8" d="   M 654.23 190.29   L 651.93 192.34   A 2.35 2.33 18.6 0 1 650.79 192.90   Q 644.23 194.07 639.50 194.07   Q 573.39 193.97 541.50 193.97   C 536.41 193.97 530.14 193.92 525.17 192.60   A 1.95 1.86 71.5 0 1 524.43 192.21   L 522.04 190.17   Q 523.61 188.25 523.59 182.98   Q 523.53 166.59 523.71 155.32   A 1.60 1.59 -89.6 0 1 525.30 153.74   L 651.15 153.74   A 1.48 1.48 0.0 0 1 652.63 155.18   Q 652.94 166.80 652.72 180.96   Q 652.63 187.17 654.23 190.29   Z"/>
<ellipse xmlns="http://www.w3.org/2000/svg" fill="#b3bac2" cx="0.00" cy="0.00" transform="translate(39.93,169.20) rotate(-85.9)" rx="13.93" ry="12.77"/>
<path xmlns="http://www.w3.org/2000/svg" fill="#484f54" d="   M 674.79 301.32   L 595.84 301.38   L 475.94 301.41   A 0.46 0.46 0.0 0 0 475.48 301.87   L 475.48 307.05   A 0.82 0.82 0.0 0 1 474.66 307.87   L 471.88 307.87   A 0.83 0.83 0.0 0 1 471.05 307.04   L 471.05 297.41   A 0.51 0.51 0.0 0 1 471.56 296.90   L 518.92 297.01   L 658.01 297.06   L 772.97 296.98   A 0.58 0.58 0.0 0 0 773.55 296.40   L 773.55 160.03   A 0.24 0.23 -0.0 0 1 773.79 159.80   L 782.54 159.80   A 0.26 0.26 0.0 0 1 782.80 160.06   L 782.80 310.90   A 0.88 0.88 0.0 0 1 781.92 311.78   L 774.33 311.78   A 0.85 0.85 0.0 0 1 773.48 310.93   L 773.48 302.23   A 0.93 0.93 0.0 0 0 772.55 301.30   L 674.79 301.32   Z"/>
<circle xmlns="http://www.w3.org/2000/svg" fill="#b3bac2" cx="184.32" cy="184.42" r="13.19"/>
<path xmlns="http://www.w3.org/2000/svg" fill="#ebd98d" d="   M 685.78 243.28   Q 689.19 242.15 692.77 242.14   Q 704.87 242.09 717.91 241.84   A 1.17 1.16 89.5 0 0 719.05 240.67   L 719.05 207.00   A 1.04 1.03 -89.4 0 0 718.04 205.96   Q 705.45 205.70 694.25 205.79   Q 688.52 205.83 685.97 203.95   Q 686.06 200.11 686.07 197.23   Q 686.07 193.99 689.51 193.95   Q 708.43 193.74 727.53 193.90   A 2.02 2.01 -5.4 0 1 729.50 195.52   L 730.61 201.03   A 1.66 1.64 -82.3 0 0 731.46 202.16   Q 733.63 203.31 733.86 206.32   Q 735.26 224.39 734.02 239.84   C 733.81 242.41 734.79 244.84 730.98 245.22   A 0.89 0.89 0.0 0 0 730.17 246.06   Q 730.01 248.74 729.87 251.34   Q 729.74 253.87 727.24 253.95   Q 716.80 254.27 689.78 254.19   C 687.30 254.19 686.34 253.40 686.16 250.80   Q 685.91 247.03 685.78 243.28   Z"/>
<path xmlns="http://www.w3.org/2000/svg" fill="#f4eba8" d="   M 685.97 203.95   Q 688.52 205.83 694.25 205.79   Q 705.45 205.70 718.04 205.96   A 1.04 1.03 -89.4 0 1 719.05 207.00   L 719.05 240.67   A 1.17 1.16 89.5 0 1 717.91 241.84   Q 704.87 242.09 692.77 242.14   Q 689.19 242.15 685.78 243.28   Q 683.42 242.03 683.27 240.75   Q 681.41 224.89 682.99 209.00   Q 683.29 205.92 685.97 203.95   Z"/>
<rect xmlns="http://www.w3.org/2000/svg" fill="#f4eba8" x="-23.60" y="-15.53" transform="translate(588.45,229.60) rotate(-0.1)" width="47.20" height="31.06" rx="3.22"/>
<path xmlns="http://www.w3.org/2000/svg" fill="#b3bac2" d="   M 398.07 250.00   L 402.41 249.84   A 0.73 0.73 0.0 0 1 403.17 250.57   Q 403.25 268.00 403.19 283.25   Q 403.17 288.30 401.92 295.63   A 2.69 2.64 -20.9 0 1 401.36 296.85   L 399.48 299.17   Q 399.41 298.31 398.70 297.69   A 1.40 1.36 -22.1 0 0 397.82 297.33   C 384.65 296.62 371.85 296.70 356.26 296.95   A 1.14 1.13 89.5 0 1 355.11 295.81   L 355.29 249.83   L 398.07 250.00   Z"/>
<path xmlns="http://www.w3.org/2000/svg" fill="#f4eba8" d="   M 658.01 297.06   L 518.92 297.01   Q 517.83 283.81 518.77 268.98   C 518.98 265.64 521.10 266.08 524.00 266.06   Q 589.59 265.79 655.23 266.09   Q 658.17 266.10 658.34 269.01   Q 659.16 282.90 658.01 297.06   Z"/>
<path xmlns="http://www.w3.org/2000/svg" fill="#dbb68a" d="   M 674.79 301.32   L 675.02 328.52   A 0.53 0.53 0.0 0 1 674.49 329.06   L 641.50 329.07   L 629.48 329.09   L 596.31 329.07   A 0.72 0.72 0.0 0 1 595.59 328.34   L 595.84 301.38   L 674.79 301.32   Z"/>
<path xmlns="http://www.w3.org/2000/svg" fill="#b3bac2" d="   M 641.50 329.07   C 649.69 332.55 654.14 341.36 651.39 349.93   C 649.72 355.14 644.87 359.76 639.22 360.83   Q 627.98 362.96 621.48 353.24   Q 618.24 348.40 619.50 341.90   Q 621.18 333.18 629.48 329.09   L 641.50 329.07   Z"/>
<path xmlns="http://www.w3.org/2000/svg" fill="#d8d9de" d="   M 269.70 378.16   L 269.92 409.14   A 0.92 0.91 75.6 0 1 269.45 409.94   Q 268.12 410.67 266.01 410.73   Q 252.63 411.13 238.49 410.57   Q 236.81 410.50 234.87 408.42   L 234.82 378.61   A 0.51 0.51 0.0 0 1 235.33 378.10   L 269.70 378.16   Z"/>
<path xmlns="http://www.w3.org/2000/svg" fill="#d8d9de" d="   M 389.47 482.24   Q 388.04 480.54 387.99 479.25   Q 387.37 464.68 388.01 451.50   C 388.41 443.16 388.77 436.25 388.50 427.80   Q 387.71 403.10 387.92 378.27   L 433.43 378.24   A 0.51 0.51 0.0 0 1 433.94 378.75   L 433.94 481.51   A 0.72 0.72 0.0 0 1 433.22 482.23   L 389.47 482.24   Z   M 423.25 477.81   C 426.81 477.68 429.00 474.84 429.04 471.45   Q 429.37 439.61 429.08 404.18   Q 429.03 397.46 428.19 394.91   C 424.12 382.47 408.24 378.99 398.96 387.41   Q 393.39 392.47 393.08 398.64   Q 392.20 416.14 391.73 427.76   Q 391.43 435.24 392.27 443.70   Q 393.24 453.42 392.80 468.75   C 392.68 473.07 393.38 477.13 398.54 477.49   Q 410.10 478.27 423.25 477.81   Z"/>
<path xmlns="http://www.w3.org/2000/svg" fill="#b3bac2" d="   M 429.04 471.45   C 429.00 474.84 426.81 477.68 423.25 477.81   Q 410.10 478.27 398.54 477.49   C 393.38 477.13 392.68 473.07 392.80 468.75   Q 393.24 453.42 392.27 443.70   Q 391.43 435.24 391.73 427.76   Q 392.20 416.14 393.08 398.64   Q 393.39 392.47 398.96 387.41   C 408.24 378.99 424.12 382.47 428.19 394.91   Q 429.03 397.46 429.08 404.18   Q 429.37 439.61 429.04 471.45   Z"/>
<rect xmlns="http://www.w3.org/2000/svg" fill="#e7dacc" x="619.81" y="420.22" width="150.08" height="59.68" rx="2.90"/>
<path xmlns="http://www.w3.org/2000/svg" fill="#b2d1ab" d="   M 832.50 439.27   A 1.34 1.34 0.0 0 0 833.00 440.11   C 833.93 440.80 835.67 441.25 836.83 442.00   C 845.09 447.32 845.02 458.50 836.55 463.56   Q 834.60 464.73 833.98 465.11   A 1.75 1.74 85.2 0 0 833.29 465.92   Q 828.64 477.77 816.13 476.65   C 809.35 476.04 807.19 472.69 803.70 467.87   A 4.48 4.39 85.6 0 0 802.19 466.54   Q 800.15 465.46 798.19 464.30   C 791.42 460.29 789.81 450.87 794.09 444.43   C 795.30 442.62 796.80 441.64 798.86 439.93   A 1.66 1.66 0.0 0 0 799.41 439.05   C 800.38 434.99 801.23 431.32 805.86 430.20   C 807.66 429.76 809.67 430.19 811.18 430.15   A 2.55 2.40 -60.5 0 0 812.45 429.76   C 816.87 426.95 820.61 424.84 825.79 427.38   C 829.38 429.14 831.82 432.44 832.22 436.52   Q 832.49 439.17 832.50 439.27   Z"/>
<path xmlns="http://www.w3.org/2000/svg" fill="#b2d1ab" d="   M 889.92 440.06   C 890.85 440.75 892.60 441.20 893.76 441.94   C 902.06 447.24 902.03 458.44 893.56 463.54   Q 891.61 464.72 890.99 465.10   A 1.76 1.74 85.0 0 0 890.31 465.92   Q 885.69 477.81 873.16 476.73   C 866.36 476.15 864.19 472.80 860.67 467.98   A 4.48 4.39 85.4 0 0 859.15 466.66   Q 857.11 465.58 855.14 464.43   C 848.34 460.43 846.69 451.00 850.96 444.54   C 852.16 442.72 853.66 441.73 855.72 440.01   A 1.66 1.66 0.0 0 0 856.27 439.13   C 857.22 435.06 858.06 431.38 862.69 430.24   C 864.50 429.79 866.51 430.21 868.02 430.17   A 2.55 2.40 -60.8 0 0 869.29 429.77   C 873.71 426.94 877.45 424.81 882.65 427.34   C 886.25 429.09 888.71 432.39 889.12 436.47   Q 889.40 439.12 889.41 439.22   A 1.34 1.34 0.0 0 0 889.92 440.06   Z"/>
<path xmlns="http://www.w3.org/2000/svg" fill="#d8d9de" d="   M 281.82 482.26   L 254.70 482.21   Q 253.38 464.78 254.21 456.25   Q 255.09 447.26 263.10 443.90   C 269.56 441.20 277.61 444.24 280.68 450.79   Q 281.98 453.56 282.10 459.51   Q 282.33 470.82 281.82 482.26   Z"/>
<path xmlns="http://www.w3.org/2000/svg" fill="#d8d9de" d="   M 363.14 482.26   L 318.19 482.23   Q 316.95 471.00 319.04 463.44   Q 320.83 456.96 327.69 452.24   C 339.08 444.41 354.85 448.48 361.02 460.57   C 363.94 466.29 363.65 475.44 363.14 482.26   Z   M 325.6201 464.6500   A 15.01 12.52 -177.9 0 0 340.1612 477.7116   A 15.01 12.52 -177.9 0 0 355.6199 465.7500   A 15.01 12.52 -177.9 0 0 341.0788 452.6884   A 15.01 12.52 -177.9 0 0 325.6201 464.6500   Z"/>
<ellipse xmlns="http://www.w3.org/2000/svg" fill="#b3bac2" cx="0.00" cy="0.00" transform="translate(340.62,465.20) rotate(-177.9)" rx="15.01" ry="12.52"/>
<path xmlns="http://www.w3.org/2000/svg" fill="#dbb68a" d="   M 581.01 482.28   L 517.10 482.29   L 516.82 458.05   A 0.93 0.93 0.0 0 1 517.75 457.11   L 580.31 457.11   A 0.89 0.88 0.3 0 1 581.20 458.00   L 581.01 482.28   Z"/>
</g></g></g></svg>